# xmcd CD database file
#
# Track frame offsets:
#	225
#	13607
#	24446
#	35514
#	56237
#	71150
#	83868
#	97577
#	108865
#	117149
#	125758
#	140070
#
# Disc length: 2033 seconds
#
# Revision: 1
# Processed by: cddbd v1.4PL0 Copyright (c) Steve Scherf et al.
# Submitted via: CDValet v3.40 - Copyright (c) 1996 - 1998 Greg Leichner
#
DISCID=a007ee0c
DTITLE=Wayne, Bobby and The Jordanaires - Ballad Of The Appaloo
DTITLE=sa
DYEAR=1900
DGENRE=
TTITLE0=Black Lightning
TTITLE1=Wild Fire
TTITLE2=Albino
TTITLE3=The Blizzard
TTITLE4=The Red Headed Stranger
TTITLE5=Comanche, The Brave Horse
TTITLE6=Ballad Of The Appaloosa
TTITLE7=Mustang
TTITLE8=Buckskin
TTITLE9=Outlaw
TTITLE10=Tennessee Stud
TTITLE11=Show Boat
EXTD=
EXTT0=
EXTT1=
EXTT2=
EXTT3=
EXTT4=
EXTT5=
EXTT6=
EXTT7=
EXTT8=
EXTT9=
EXTT10=
EXTT11=
PLAYORDER=
